<svg width="107" height="28" viewBox="0 0 107 28" fill="none" xmlns="http://www.w3.org/2000/svg">
<path d="M40.8881 22.8244C39.5601 22.8244 38.4321 22.5844 37.5041 22.1044C36.5761 21.6244 35.7441 20.9204 35.0081 19.9924L36.8801 18.1204C37.3441 18.7924 37.8961 19.3204 38.5361 19.7044C39.1761 20.0724 39.9921 20.2564 40.9841 20.2564C41.9121 20.2564 42.6481 20.0644 43.1921 19.6804C43.7521 19.2964 44.0321 18.7684 44.0321 18.0964C44.0321 17.5364 43.8881 17.0804 43.6001 16.7284C43.3121 16.3764 42.9281 16.0884 42.4481 15.8644C41.9841 15.6244 41.4641 15.4164 40.8881 15.2404C40.3281 15.0484 39.7601 14.8404 39.1841 14.6164C38.6241 14.3764 38.1041 14.0804 37.6241 13.7284C37.1601 13.3764 36.7841 12.9204 36.4961 12.3604C36.2081 11.8004 36.0641 11.0884 36.0641 10.2244C36.0641 9.23238 36.3041 8.39238 36.7841 7.70438C37.2801 7.00038 37.9441 6.46438 38.7761 6.09638C39.6081 5.72838 40.5361 5.54438 41.5601 5.54438C42.6641 5.54438 43.6481 5.76038 44.5121 6.19238C45.3921 6.62438 46.1041 7.17638 46.6481 7.84838L44.7761 9.72038C44.2961 9.17638 43.7921 8.77638 43.2641 8.52038C42.7521 8.24838 42.1601 8.11238 41.4881 8.11238C40.6561 8.11238 40.0001 8.28038 39.5201 8.61638C39.0561 8.95238 38.8241 9.42438 38.8241 10.0324C38.8241 10.5444 38.9681 10.9604 39.2561 11.2804C39.5441 11.5844 39.9201 11.8484 40.3841 12.0724C40.8641 12.2804 41.3841 12.4804 41.9441 12.6724C42.5201 12.8644 43.0881 13.0804 43.6481 13.3204C44.2241 13.5604 44.7441 13.8724 45.2081 14.2564C45.6881 14.6244 46.0721 15.1044 46.3601 15.6964C46.6481 16.2884 46.7921 17.0324 46.7921 17.9284C46.7921 19.4324 46.2561 20.6244 45.1841 21.5044C44.1281 22.3844 42.6961 22.8244 40.8881 22.8244Z" fill="white"/>
<path d="M53.3475 22.8244C52.2115 22.8244 51.1795 22.5604 50.2515 22.0324C49.3395 21.5044 48.6194 20.7844 48.0914 19.8724C47.5634 18.9604 47.2994 17.9444 47.2994 16.8244C47.2994 15.6884 47.5634 14.6724 48.0914 13.7764C48.6194 12.8644 49.3395 12.1444 50.2515 11.6164C51.1795 11.0884 52.2115 10.8244 53.3475 10.8244C54.2435 10.8244 55.0755 11.0004 55.8435 11.3524C56.6275 11.6884 57.2915 12.1764 57.8355 12.8164L56.1075 14.5684C55.7715 14.1684 55.3635 13.8724 54.8835 13.6804C54.4195 13.4724 53.9075 13.3684 53.3475 13.3684C52.6915 13.3684 52.1075 13.5204 51.5955 13.8244C51.0995 14.1124 50.7075 14.5124 50.4195 15.0244C50.1475 15.5364 50.0115 16.1364 50.0115 16.8244C50.0115 17.4964 50.1475 18.0964 50.4195 18.6244C50.7075 19.1364 51.0995 19.5444 51.5955 19.8484C52.1075 20.1364 52.6915 20.2804 53.3475 20.2804C53.9075 20.2804 54.4195 20.1844 54.8835 19.9924C55.3635 19.7844 55.7715 19.4804 56.1075 19.0804L57.8355 20.8324C57.2915 21.4724 56.6275 21.9684 55.8435 22.3204C55.0755 22.6564 54.2435 22.8244 53.3475 22.8244Z" fill="white"/>
<path d="M63.8564 22.8244C62.7044 22.8244 61.6644 22.5684 60.7364 22.0564C59.8244 21.5284 59.0964 20.8084 58.5524 19.8964C58.0244 18.9844 57.7604 17.9604 57.7604 16.8244C57.7604 15.6884 58.0244 14.6724 58.5524 13.7764C59.0804 12.8644 59.7924 12.1444 60.6884 11.6164C61.6004 11.0884 62.6084 10.8244 63.7124 10.8244C64.7844 10.8244 65.7284 11.0724 66.5444 11.5684C67.3764 12.0644 68.0244 12.7444 68.4884 13.6084C68.9684 14.4724 69.2084 15.4564 69.2084 16.5604C69.2084 16.7524 69.1924 16.9524 69.1604 17.1604C69.1444 17.3524 69.1124 17.5684 69.0644 17.8084H59.6084V15.6484H67.6964L66.7124 16.5124C66.6804 15.8084 66.5444 15.2164 66.3044 14.7364C66.0644 14.2564 65.7204 13.8884 65.2724 13.6324C64.8404 13.3764 64.3044 13.2484 63.6644 13.2484C62.9924 13.2484 62.4084 13.3924 61.9124 13.6804C61.4164 13.9684 61.0324 14.3764 60.7604 14.9044C60.4884 15.4164 60.3524 16.0324 60.3524 16.7524C60.3524 17.4724 60.4964 18.1044 60.7844 18.6484C61.0724 19.1924 61.4804 19.6164 62.0084 19.9204C62.5364 20.2084 63.1444 20.3524 63.8324 20.3524C64.4244 20.3524 64.9684 20.2484 65.4644 20.0404C65.9764 19.8324 66.4084 19.5284 66.7604 19.1284L68.4404 20.8324C67.8804 21.4884 67.2004 21.9844 66.4004 22.3204C65.6004 22.6564 64.7524 22.8244 63.8564 22.8244Z" fill="white"/>
<path d="M78.2207 22.5844V15.9364C78.2207 15.1684 77.9727 14.5364 77.4767 14.0404C76.9967 13.5444 76.3727 13.2964 75.6047 13.2964C75.0927 13.2964 74.6367 13.4084 74.2367 13.6324C73.8367 13.8564 73.5247 14.1684 73.3007 14.5684C73.0767 14.9684 72.9647 15.4244 72.9647 15.9364L71.9327 15.3604C71.9327 14.4804 72.1247 13.7044 72.5087 13.0324C72.8927 12.3444 73.4207 11.8084 74.0927 11.4244C74.7807 11.0244 75.5487 10.8244 76.3967 10.8244C77.2607 10.8244 78.0287 11.0484 78.7007 11.4964C79.3727 11.9284 79.9007 12.4964 80.2847 13.2004C80.6687 13.8884 80.8607 14.6084 80.8607 15.3604V22.5844H78.2207ZM70.3247 22.5844V11.0644H72.9647V22.5844H70.3247Z" fill="white"/>
<path d="M82.5675 22.5844V11.0644H85.2075V22.5844H82.5675ZM83.8875 8.95238C83.4395 8.95238 83.0635 8.80038 82.7595 8.49638C82.4715 8.19238 82.3275 7.81638 82.3275 7.36838C82.3275 6.92038 82.4715 6.54438 82.7595 6.24038C83.0635 5.93638 83.4395 5.78438 83.8875 5.78438C84.3515 5.78438 84.7274 5.93638 85.0154 6.24038C85.3034 6.54438 85.4474 6.92038 85.4474 7.36838C85.4474 7.81638 85.3034 8.19238 85.0154 8.49638C84.7274 8.80038 84.3515 8.95238 83.8875 8.95238Z" fill="white"/>
<path d="M88.7524 22.5844V9.55238C88.7524 8.67238 88.9445 7.89638 89.3285 7.22438C89.7285 6.55238 90.2724 6.02438 90.9604 5.64038C91.6644 5.25638 92.4725 5.06438 93.3845 5.06438C94.0885 5.06438 94.6884 5.18438 95.1844 5.42438C95.6804 5.66438 96.1445 6.00838 96.5765 6.45638L94.8725 8.16038C94.6805 7.96838 94.4725 7.81638 94.2485 7.70438C94.0245 7.59238 93.7365 7.53638 93.3845 7.53638C92.7445 7.53638 92.2485 7.71238 91.8965 8.06438C91.5605 8.40038 91.3924 8.88838 91.3924 9.52838V22.5844H88.7524ZM85.9925 13.4644V11.0644H94.8725V13.4644H85.9925Z" fill="white"/>
<path d="M99.2635 22.7044L94.3435 11.0644H97.2475L100.607 19.6084H99.7674L103.319 11.0644H106.247L100.895 22.7044H99.2635ZM95.8315 27.3844L99.4075 20.0164L100.895 22.7044L98.7595 27.3844H95.8315Z" fill="white"/>
<path d="M5.61303 7.70067C6.00355 7.31015 6.63672 7.31015 7.02724 7.70067L12.3474 13.0208C12.7379 13.4113 12.7379 14.0445 12.3474 14.435L7.02724 19.7552C6.63672 20.1457 6.00355 20.1457 5.61303 19.7552L0.292893 14.435C-0.0976308 14.0445 -0.0976313 13.4113 0.292893 13.0208L5.61303 7.70067Z" fill="#11CC00"/>
<path d="M13.021 0.292893C13.4115 -0.0976308 14.0446 -0.0976313 14.4352 0.292893L19.7553 5.61303C20.1458 6.00355 20.1458 6.63672 19.7553 7.02724L14.4352 12.3474C14.0446 12.7379 13.4115 12.7379 13.021 12.3474L7.70082 7.02724C7.31029 6.63672 7.31029 6.00355 7.70082 5.61303L13.021 0.292893Z" fill="#11CC00"/>
<path d="M13.021 15.1085C13.4115 14.7179 14.0446 14.7179 14.4352 15.1085L19.7553 20.4286C20.1458 20.8191 20.1458 21.4523 19.7553 21.8428L14.4352 27.1629C14.0446 27.5535 13.4115 27.5535 13.021 27.1629L7.70082 21.8428C7.31029 21.4523 7.31029 20.8191 7.70082 20.4286L13.021 15.1085Z" fill="#11CC00"/>
<path d="M20.4289 7.70067C20.8194 7.31015 21.4526 7.31015 21.8431 7.70067L27.1632 13.0208C27.5538 13.4113 27.5538 14.0445 27.1632 14.435L21.8431 19.7552C21.4526 20.1457 20.8194 20.1457 20.4289 19.7552L15.1087 14.435C14.7182 14.0445 14.7182 13.4113 15.1087 13.0208L20.4289 7.70067Z" fill="#00A900"/>
</svg>
